<?xml version="1.0" encoding="UTF-8" standalone="no"?>
<svg xmlns:svg="http://www.w3.org/2000/svg" xmlns="http://www.w3.org/2000/svg" version="1.1"
  width="48px" height="48px" viewBox="0 0 80 80">
  <g style="fill-opacity:1;fill-rule:evenodd;stroke:#000000;stroke-width:1;stroke-linecap:square;stroke-linejoin:miter;stroke-miterlimit:4;stroke-dasharray:none;stroke-opacity:1;">
   <g style="fill:#999999;">
      <path d="M 63.0,14.5 L 39.7,39.6 L 39.0,29.9 L 63.0,14.5 z" />
      <path d="M 14.7,16.2 L 39.7,39.6 L 30.0,40.3 L 14.7,16.2 z" />
      <path d="M 16.3,64.6 L 39.7,39.6 L 40.4,49.3 L 16.3,64.6 z" />
      <path d="M 64.7,63.0 L 39.7,39.6 L 49.4,38.9 L 64.7,63.0 z" />
    </g>
    <g style="fill:#CCCCCC;">
      <path d="M 14.6,16.2 L 39.7,39.6 L 38.9,29.9 L 14.6,16.2 z" />
      <path d="M 63.0,14.5 L 39.7,39.6 L 49.4,38.9 L 63.0,14.5 z" />
      <path d="M 64.7,63.0 L 39.7,39.6 L 40.4,49.3 L 64.7,63.0 z" />
      <path d="M 16.3,64.7 L 39.7,39.6 L 30.0,40.3 L 16.3,64.7 z" />
    </g>
    <g style="fill:#666666;">
      <path d="M 39.7,0.0  L 39.7,39.6 L 31.4,32.0 L 39.7,0.0  z"  />
      <path d="M  0.0,39.5 L 39.7,39.6 L 32.0,47.8 L  0.0,39.5 z" />
      <path d="M 39.6,79.3 L 39.7,39.6 L 47.9,47.3 L 39.6,79.3 z" />
      <path d="M 79.3,39.7 L 39.7,39.6 L 47.4,31.4 L 79.3,39.7 z" />
    </g>
    <g style="fill:#EEEEEE;">
      <path d="M  0.0,39.6 L 39.7,39.6 L 31.4,32.0 L  0.0,39.6 z" />
      <path d="M 39.7,0.0  L 39.7,39.6 L 47.3,31.4 L 39.7,0.0  z" />
      <path d="M 79.3,39.6 L 39.7,39.6 L 47.9,47.3 L 79.3,39.6 z" />
      <path d="M 39.6,79.3 L 39.7,39.6 L 32.0,47.9 L 39.6,79.3 z" />
    </g>
  </g>
</svg>
